<svg width="20" height="16" viewBox="0 0 20 16" fill="none" xmlns="http://www.w3.org/2000/svg">
<path d="M10.002 0L10.2882 0.00481888C14.2192 0.135466 17.7497 2.90091 19.7968 7.38563L19.9361 7.69904C20.0203 7.88839 20.0213 8.10399 19.9391 8.29416C17.8707 13.0769 14.1389 16 9.998 16L9.71179 15.9952C5.77544 15.8644 2.24638 13.0931 0.204239 8.61679L0.0609149 8.29416C-0.020305 8.10636 -0.020305 7.89364 0.0609149 7.70583C2.12926 2.92308 5.86108 0 10.002 0ZM10.009 1.48942C6.69148 1.49027 3.61117 3.77315 1.72658 7.66619L1.57 7.99911L1.73914 8.3597C3.52637 12.0344 6.38271 14.2721 9.48061 14.4915L9.74693 14.5054L10.004 14.5088L10.2589 14.505C13.5569 14.3853 16.5987 12.0005 18.4197 8.02313L18.429 7.99911C16.6525 4.10553 13.7122 1.73484 10.5149 1.50845L10.2479 1.49456L10.009 1.48942ZM9.9995 4.11346C12.16 4.11346 13.9115 5.85325 13.9115 8.0002C13.9115 10.1463 12.1598 11.8859 9.9995 11.8859C7.83929 11.8859 6.0885 10.1465 6.0885 8.0002C6.0885 5.85313 7.8391 4.11346 9.9995 4.11346ZM9.9995 5.60378C8.6676 5.60378 7.5885 6.67614 7.5885 8.0002C7.5885 9.32338 8.66771 10.3956 9.9995 10.3956C11.3316 10.3956 12.4115 9.32312 12.4115 8.0002C12.4115 6.6764 11.3317 5.60378 9.9995 5.60378Z" fill="#0351DF"/>
</svg>
