<svg width="20" height="20" viewBox="0 0 20 20" fill="none" xmlns="http://www.w3.org/2000/svg">
<path d="M6.01348 10.9449C7.65852 10.9449 8.98922 12.2875 8.98922 13.9413V17.0045C8.98922 18.6576 7.65833 20 6.01348 20H2.97574C1.33089 20 0 18.6576 0 17.0045V13.9413C0 12.2875 1.3307 10.9449 2.97574 10.9449H6.01348ZM17.0252 10.9449C18.6695 10.9449 20 12.2877 20 13.9413V17.0045C20 18.6574 18.6693 20 17.0252 20H13.9865C12.3417 20 11.0108 18.6576 11.0108 17.0045V13.9413C11.0108 12.2875 12.3415 10.9449 13.9865 10.9449H17.0252ZM6.01348 12.3402H2.97574C2.10413 12.3402 1.39535 13.0553 1.39535 13.9413V17.0045C1.39535 17.8896 2.10423 18.6047 2.97574 18.6047H6.01348C6.88499 18.6047 7.59387 17.8896 7.59387 17.0045V13.9413C7.59387 13.0553 6.88509 12.3402 6.01348 12.3402ZM17.0252 12.3402H13.9865C13.1149 12.3402 12.4061 13.0553 12.4061 13.9413V17.0045C12.4061 17.8896 13.115 18.6047 13.9865 18.6047H17.0252C17.8959 18.6047 18.6047 17.8895 18.6047 17.0045V13.9413C18.6047 13.0554 17.896 12.3402 17.0252 12.3402ZM17.0252 0C18.6693 0 20 1.34264 20 2.99552V6.05963C20 7.71184 18.669 9.05515 17.0252 9.05515H13.9865C12.342 9.05515 11.0108 7.71203 11.0108 6.05963V2.99552C11.0108 1.34244 12.3417 0 13.9865 0H17.0252ZM6.01348 0C7.65833 0 8.98922 1.34244 8.98922 2.99552V6.05963C8.98922 7.71203 7.65805 9.05515 6.01348 9.05515H2.97574C1.33117 9.05515 0 7.71203 0 6.05963V2.99552C0 1.34244 1.33089 0 2.97574 0H6.01348ZM17.0252 1.39535H13.9865C13.115 1.39535 12.4061 2.11039 12.4061 2.99552V6.05963C12.4061 6.94418 13.1154 7.6598 13.9865 7.6598H17.0252C17.8955 7.6598 18.6047 6.94407 18.6047 6.05963V2.99552C18.6047 2.11049 17.8959 1.39535 17.0252 1.39535ZM6.01348 1.39535H2.97574C2.10423 1.39535 1.39535 2.11039 1.39535 2.99552V6.05963C1.39535 6.94418 2.10461 7.6598 2.97574 7.6598H6.01348C6.88461 7.6598 7.59387 6.94418 7.59387 6.05963V2.99552C7.59387 2.11039 6.88499 1.39535 6.01348 1.39535Z" fill="#0351DF"/>
</svg>
