<svg width="20" height="20" viewBox="0 0 20 20" fill="none" xmlns="http://www.w3.org/2000/svg">
<path d="M19.7046 2.59145L19.668 2.73242L15.0229 18.3719C14.5619 19.9229 12.5396 20.2328 11.6263 18.9533L11.5388 18.8201L7.64304 12.366L1.1675 8.38014C-0.208969 7.53277 0.0165134 5.48602 1.4861 4.93295L1.63719 4.88272L17.2937 0.326986C18.7091 -0.0826114 20.0162 1.18579 19.7046 2.59145ZM17.7847 1.75314L17.7118 1.76756L2.0558 6.32313C1.7299 6.41772 1.64985 6.83643 1.88768 7.05309L1.9538 7.10274L8.07804 10.872L13.3233 5.59254C13.5887 5.32538 14.0053 5.29979 14.2996 5.51667L14.384 5.589C14.6512 5.85438 14.6767 6.27096 14.4599 6.5653L14.3875 6.64966L9.13504 11.936L12.823 18.045C12.9986 18.3359 13.4094 18.3068 13.5546 18.0214L13.585 17.9447L18.2303 2.30464C18.3202 2.00303 18.0735 1.72213 17.7847 1.75314Z" fill="#0351DF"/>
</svg>
