<svg width="20" height="20" viewBox="0 0 20 20" fill="none" xmlns="http://www.w3.org/2000/svg">
<path d="M14.3588 0C17.7501 0 20 2.41665 20 5.89317V14.1068C20 17.5833 17.7501 20 14.3588 20H5.6412C2.24992 20 0 17.5833 0 14.1068V5.89317C0 2.4199 2.25586 0 5.6412 0H14.3588ZM14.3588 1.39535H5.6412C3.04923 1.39535 1.39535 3.16949 1.39535 5.89317V14.1068C1.39535 16.8341 3.04372 18.6047 5.6412 18.6047H14.3588C16.9563 18.6047 18.6047 16.8341 18.6047 14.1068V5.89317C18.6047 3.16587 16.9563 1.39535 14.3588 1.39535ZM5.69435 7.6295C6.04756 7.6295 6.33946 7.89197 6.38566 8.2325L6.39203 8.32717V14.7087C6.39203 15.094 6.07967 15.4064 5.69435 15.4064C5.34115 15.4064 5.04924 15.1439 5.00305 14.8034L4.99668 14.7087V8.32717C4.99668 7.94186 5.30904 7.6295 5.69435 7.6295ZM10.0354 4.57593C10.3886 4.57593 10.6805 4.8384 10.7267 5.17893L10.7331 5.2736V14.7087C10.7331 15.094 10.4208 15.4064 10.0354 15.4064C9.68223 15.4064 9.39033 15.1439 9.34413 14.8034L9.33776 14.7087V5.2736C9.33776 4.88829 9.65012 4.57593 10.0354 4.57593ZM14.3056 11.0017C14.6589 11.0017 14.9508 11.2642 14.997 11.6047L15.0033 11.6994V14.7087C15.0033 15.094 14.691 15.4064 14.3056 15.4064C13.9524 15.4064 13.6605 15.1439 13.6143 14.8034L13.608 14.7087V11.6994C13.608 11.3141 13.9203 11.0017 14.3056 11.0017Z" fill="#0351DF"/>
</svg>
