<svg width="14" height="18" viewBox="0 0 14 18" fill="none" xmlns="http://www.w3.org/2000/svg">
<path d="M13.25 5.25003C13.2502 4.81165 13.1351 4.38094 12.9163 4.00107C12.6975 3.62121 12.3826 3.30556 12.0033 3.08579C11.624 2.86601 11.1936 2.74983 10.7552 2.7489C10.3169 2.74798 9.88595 2.86234 9.50573 3.08051C9.1255 3.29869 8.80933 3.613 8.58892 3.99194C8.36852 4.37087 8.25162 4.8011 8.24997 5.23947C8.24832 5.67784 8.36196 6.10894 8.5795 6.48952C8.79705 6.87011 9.11084 7.1868 9.48941 7.40784C9.39995 8.54378 8.70503 8.85315 6.55972 9.29925C5.86597 9.443 5.1562 9.59026 4.50073 9.84339V4.9137C4.97734 4.63853 5.34983 4.21379 5.56043 3.70534C5.77104 3.1969 5.80799 2.63317 5.66555 2.10159C5.52311 1.57 5.20925 1.10027 4.77264 0.765251C4.33603 0.430228 3.80107 0.248634 3.25073 0.248634C2.7004 0.248634 2.16544 0.430228 1.72883 0.765251C1.29222 1.10027 0.978356 1.57 0.835919 2.10159C0.693481 2.63317 0.73043 3.1969 0.941035 3.70534C1.15164 4.21379 1.52413 4.63853 2.00073 4.9137V13.0864C1.52485 13.3611 1.15277 13.7851 0.94203 14.2926C0.731291 14.8001 0.693639 15.3629 0.834896 15.894C0.976153 16.425 1.28845 16.8947 1.72348 17.2305C2.15852 17.5662 2.69206 17.7493 3.24158 17.7513C3.79109 17.7534 4.32598 17.5743 4.7635 17.2418C5.20103 16.9093 5.51682 16.4419 5.66203 15.9119C5.80724 15.382 5.77378 14.8189 5.56683 14.3098C5.35987 13.8008 4.99096 13.3741 4.51714 13.0957C4.6105 12.3926 5.14214 12.1453 7.06636 11.7473C8.13784 11.5258 9.24527 11.2965 10.1828 10.6946C11.3156 9.96878 11.9222 8.86721 11.9937 7.4176C12.3753 7.19876 12.6924 6.88312 12.9129 6.50253C13.1335 6.12195 13.2498 5.68991 13.25 5.25003ZM3.24995 1.50003C3.49718 1.50003 3.73885 1.57334 3.94442 1.71069C4.14998 1.84804 4.31019 2.04326 4.4048 2.27167C4.49941 2.50008 4.52417 2.75141 4.47593 2.99389C4.4277 3.23637 4.30865 3.45909 4.13384 3.63391C3.95902 3.80873 3.73629 3.92778 3.49382 3.97601C3.25134 4.02424 3.00001 3.99949 2.7716 3.90488C2.54319 3.81027 2.34797 3.65005 2.21062 3.44449C2.07326 3.23893 1.99995 2.99725 1.99995 2.75003C1.99995 2.41851 2.13165 2.10056 2.36607 1.86614C2.60049 1.63172 2.91843 1.50003 3.24995 1.50003ZM3.24995 16.5C3.00273 16.5 2.76105 16.4267 2.55549 16.2894C2.34993 16.152 2.18971 15.9568 2.0951 15.7284C2.00049 15.5 1.97574 15.2486 2.02397 15.0062C2.0722 14.7637 2.19125 14.541 2.36607 14.3661C2.54088 14.1913 2.76361 14.0723 3.00609 14.024C3.24857 13.9758 3.4999 14.0006 3.72831 14.0952C3.95671 14.1898 4.15194 14.35 4.28929 14.5556C4.42664 14.7611 4.49995 15.0028 4.49995 15.25C4.49995 15.5815 4.36826 15.8995 4.13384 16.1339C3.89942 16.3683 3.58147 16.5 3.24995 16.5ZM10.75 6.50003C10.5027 6.50003 10.2611 6.42672 10.0555 6.28936C9.84993 6.15201 9.68971 5.95679 9.5951 5.72838C9.50049 5.49997 9.47574 5.24864 9.52397 5.00616C9.5722 4.76369 9.69125 4.54096 9.86607 4.36614C10.0409 4.19133 10.2636 4.07228 10.5061 4.02404C10.7486 3.97581 10.9999 4.00057 11.2283 4.09518C11.4567 4.18979 11.6519 4.35 11.7893 4.55556C11.9266 4.76113 12 5.0028 12 5.25003C12 5.58155 11.8683 5.89949 11.6338 6.13391C11.3994 6.36833 11.0815 6.50003 10.75 6.50003Z" fill="#0351DF"/>
</svg>
