<svg width="11" height="14" viewBox="0 0 11 14" fill="none" xmlns="http://www.w3.org/2000/svg">
<path d="M10.0527 8.698L3.52334 12.7613C3.22051 12.9498 2.8728 13.0538 2.51624 13.0626C2.15968 13.0715 1.80725 12.9848 1.49545 12.8116C1.18366 12.6384 0.923859 12.385 0.74297 12.0776C0.562081 11.7702 0.466687 11.42 0.466674 11.0633L0.466675 2.93666C0.466687 2.57999 0.562081 2.22981 0.74297 1.92242C0.92386 1.61502 1.18366 1.36159 1.49545 1.18839C1.80725 1.01518 2.15968 0.928511 2.51624 0.937351C2.8728 0.946191 3.22051 1.05022 3.52334 1.23866L10.0533 5.302C10.3419 5.48157 10.5799 5.73171 10.7449 6.0288C10.91 6.3259 10.9966 6.66014 10.9966 7C10.9966 7.33985 10.91 7.6741 10.7449 7.97119C10.5799 8.26828 10.3419 8.51842 10.0533 8.698L10.0527 8.698Z" fill="#0FBD00"/>
</svg>
